<svg xmlns="http://www.w3.org/2000/svg" width="124" height="124" viewBox="0 0 124 124">
  <g id="Grupo_1177909" data-name="Grupo 1177909" transform="translate(8787 -11600)">
    <g id="Grupo_1177854" data-name="Grupo 1177854">
      <g id="Grupo_1177843" data-name="Grupo 1177843" transform="translate(-9175.711 -11700)">
        <circle id="Elipse_11837" data-name="Elipse 11837" cx="62" cy="62" r="62" transform="translate(388.711 23300)" fill="#0944b7"/>
        <g id="Elipse_13662" data-name="Elipse 13662" transform="translate(401.711 23312)" fill="#fff" stroke="#707070" stroke-width="1">
          <circle cx="49.5" cy="49.5" r="49.5" stroke="none"/>
          <circle cx="49.5" cy="49.5" r="49" fill="none"/>
        </g>
      </g>
      <g id="Grupo_1177853" data-name="Grupo 1177853" transform="translate(-8753 11633)">
        <g id="Grupo_1177852" data-name="Grupo 1177852" transform="translate(6.98 0.85)">
          <g id="Grupo_1177850" data-name="Grupo 1177850" transform="translate(1.699 17.562)">
            <path id="Trazado_993623" data-name="Trazado 993623" d="M86.673,374.175H76.617v-14.95a1.7,1.7,0,0,1,1.7-1.7h6.657a1.7,1.7,0,0,1,1.7,1.7v14.95Z" transform="translate(-76.617 -335.436)" fill="#fd4755"/>
            <path id="Trazado_993624" data-name="Trazado 993624" d="M123.781,357.526h-3.4a1.7,1.7,0,0,1,1.7,1.7v14.95h3.4v-14.95A1.7,1.7,0,0,0,123.781,357.526Z" transform="translate(-115.425 -335.436)" fill="#fb2b3a"/>
            <path id="Trazado_993625" data-name="Trazado 993625" d="M236.673,307.671H226.618V284.225a1.7,1.7,0,0,1,1.7-1.7h6.657a1.7,1.7,0,0,1,1.7,1.7Z" transform="translate(-209.626 -268.932)" fill="#97d729"/>
            <path id="Trazado_993626" data-name="Trazado 993626" d="M273.781,282.526h-3.4a1.7,1.7,0,0,1,1.7,1.7v23.446h3.4V284.225A1.7,1.7,0,0,0,273.781,282.526Z" transform="translate(-248.433 -268.932)" fill="#8bc727"/>
            <path id="Trazado_993627" data-name="Trazado 993627" d="M386.673,201.265H376.618v-37.04a1.7,1.7,0,0,1,1.7-1.7h6.657a1.7,1.7,0,0,1,1.7,1.7Z" transform="translate(-342.633 -162.526)" fill="#26a6fe"/>
            <path id="Trazado_993628" data-name="Trazado 993628" d="M423.781,162.526h-3.4a1.7,1.7,0,0,1,1.7,1.7v37.04h3.4v-37.04A1.7,1.7,0,0,0,423.781,162.526Z" transform="translate(-381.441 -162.526)" fill="#0593fc"/>
          </g>
          <g id="Grupo_1177851" data-name="Grupo 1177851">
            <circle id="Elipse_13667" data-name="Elipse 13667" cx="8.826" cy="8.826" r="8.826" fill="#26a6fe"/>
            <path id="Trazado_993629" data-name="Trazado 993629" d="M126.23,7.5a8.857,8.857,0,0,0-1.7.165,8.826,8.826,0,0,1,0,17.322A8.826,8.826,0,1,0,126.23,7.5Z" transform="translate(-117.404 -7.5)" fill="#0593fc"/>
            <path id="Trazado_993630" data-name="Trazado 993630" d="M111.441,45.434a4.114,4.114,0,1,1-8.229,0c0-2.009,3.215-5.534,3.961-6.326a.211.211,0,0,1,.307,0c.746.791,3.961,4.317,3.961,6.326Z" transform="translate(-98.5 -35.469)" fill="#f9f7f8"/>
            <path id="Trazado_993631" data-name="Trazado 993631" d="M133.034,39.109a.211.211,0,0,0-.307,0c-.149.158-.4.425-.7.767,1.2,1.371,3.265,3.951,3.265,5.559a4.115,4.115,0,0,1-3.265,4.026,4.116,4.116,0,0,0,4.964-4.026C136.995,43.426,133.78,39.9,133.034,39.109Z" transform="translate(-124.055 -35.47)" fill="#efedef"/>
          </g>
        </g>
        <path id="Trazado_993632" data-name="Trazado 993632" d="M29.007,15.623h6.719a.85.85,0,0,0,0-1.7H29.007a.85.85,0,0,0,0,1.7Zm0-5.1h6.719a.85.85,0,0,0,0-1.7H29.007a.85.85,0,0,0,0,1.7Zm0-5.1h6.719a.85.85,0,1,0,0-1.7H29.007a.85.85,0,1,0,0,1.7ZM57.15,56.3H53.569V26.855a.85.85,0,0,0-1.7,0V56.3H43.513V20.11a.851.851,0,0,1,.85-.85H51.02a.851.851,0,0,1,.85.85v2.78a.85.85,0,0,0,1.7,0V20.11a2.552,2.552,0,0,0-2.549-2.549H44.363a2.552,2.552,0,0,0-2.549,2.549V56.3H36.577V33.7a2.552,2.552,0,0,0-2.549-2.549H27.371A2.552,2.552,0,0,0,24.822,33.7V56.3H19.584V42.2a2.552,2.552,0,0,0-2.549-2.549H10.378A2.552,2.552,0,0,0,7.83,42.2v8.284a.85.85,0,0,0,1.7,0V42.2a.851.851,0,0,1,.85-.85h6.657a.851.851,0,0,1,.85.85V56.3H9.529V54.449a.85.85,0,0,0-1.7,0V56.3H4.248A2.552,2.552,0,0,1,1.7,53.752V.85A.85.85,0,1,0,0,.85v52.9A4.253,4.253,0,0,0,4.248,58h52.9a.85.85,0,0,0,0-1.7Zm-22.273,0H26.521V33.7a.851.851,0,0,1,.85-.85h6.657a.851.851,0,0,1,.85.85ZM15.806,15.778a4.969,4.969,0,0,0,4.964-4.964c0-2.223-2.932-5.572-4.192-6.908a1.06,1.06,0,0,0-1.543,0c-1.26,1.337-4.192,4.686-4.192,6.908A4.969,4.969,0,0,0,15.806,15.778Zm0-10.2c1.692,1.879,3.265,4.106,3.265,5.238a3.265,3.265,0,0,1-6.529,0C12.542,9.683,14.115,7.456,15.806,5.576Zm0,13.775A9.676,9.676,0,1,0,6.13,9.676,9.687,9.687,0,0,0,15.806,19.352Zm0-17.652A7.977,7.977,0,1,1,7.83,9.676,7.986,7.986,0,0,1,15.806,1.7Z"/>
      </g>
    </g>
  </g>
</svg>
